<svg xmlns="http://www.w3.org/2000/svg" width="18" height="18" viewBox="0 0 18 18">
    <g fill="none" fill-rule="evenodd">
        <g fill="#0F1C23">
            <g>
                <g>
                    <g>
                        <path d="M15.769 1.245c.25.25.27.644.058.917l-.058.065L2.574 15.422c-.27.27-.71.27-.982 0-.25-.25-.27-.645-.057-.917l.057-.065 1.77-1.77c-1.09-.886-2.133-2.08-3.133-3.583-.283-.426-.304-.965-.06-1.407l.06-.1c2.438-3.664 5.14-5.497 8.104-5.497 1.48 0 2.895.457 4.244 1.37l2.21-2.208c.27-.271.71-.271.982 0zm-.976 4.185c.56.628 1.11 1.345 1.645 2.15.283.426.303.965.06 1.407l-.06.1c-2.438 3.664-5.14 5.496-8.105 5.496-.787 0-1.556-.129-2.306-.387l1.127-1.127c.328.07.659.111.992.122l.187.003c2.373 0 4.623-1.484 6.745-4.573l.172-.254.02-.034-.158-.235c-.43-.627-.864-1.189-1.303-1.685l.984-.983zm-6.46-1.958c-2.372 0-4.623 1.484-6.745 4.574l-.171.254-.022.033.16.236c.913 1.331 1.844 2.365 2.794 3.115l1.694-1.696c-.346-.47-.547-1.048-.547-1.667 0-1.556 1.264-2.817 2.823-2.817.617 0 1.195.2 1.666.542l1.59-1.59c-.997-.624-2.014-.946-3.055-.98l-.187-.004zM8.32 6.893c-.793 0-1.435.64-1.435 1.428 0 .237.06.463.164.662l1.93-1.93c-.198-.102-.423-.16-.659-.16z" transform="translate(-316 -268) translate(24 208) translate(0 24) translate(292.667 36.667)"/>
                    </g>
                </g>
            </g>
        </g>
    </g>
</svg>
