<svg xmlns="http://www.w3.org/2000/svg" width="18" height="18" viewBox="0 0 18 18">
    <g fill="none" fill-rule="evenodd">
        <g fill="#0F1C23">
            <g>
                <g>
                    <g>
                        <path d="M8.333 2.083c2.965 0 5.666 1.833 8.105 5.497.283.426.303.965.06 1.407l-.06.1c-2.438 3.664-5.14 5.496-8.105 5.496-2.964 0-5.666-1.832-8.104-5.496-.283-.426-.304-.965-.06-1.407l.06-.1c2.438-3.664 5.14-5.497 8.104-5.497zm0 1.39c-2.372 0-4.623 1.483-6.745 4.573l-.171.254-.022.033.16.236c2.096 3.057 4.286 4.546 6.591 4.622l.187.003c2.373 0 4.623-1.484 6.745-4.573l.172-.254.02-.034-.158-.235c-2.096-3.057-4.286-4.546-6.592-4.623l-.187-.003zm0 2.083c1.534 0 2.778 1.243 2.778 2.777s-1.244 2.778-2.778 2.778-2.777-1.244-2.777-2.778 1.243-2.777 2.777-2.777zm0 1.388c-.767 0-1.389.622-1.389 1.39 0 .766.622 1.388 1.39 1.388.766 0 1.388-.622 1.388-1.389S9.1 6.944 8.333 6.944z" transform="translate(-316 -337) translate(24 277) translate(0 24) translate(292.667 36.667)"/>
                    </g>
                </g>
            </g>
        </g>
    </g>
</svg>
