<svg xmlns="http://www.w3.org/2000/svg" width="18" height="18" viewBox="0 0 18 18">
    <g fill="none" fill-rule="evenodd">
        <g fill="#0F1C23">
            <g>
                <g>
                    <g>
                        <path d="M11.458 0c.356 0 .65.268.69.613l.005.081v1.39h2.43c1.15 0 2.084.932 2.084 2.083v10.416c0 1.15-.933 2.084-2.084 2.084h-12.5C.933 16.667 0 15.734 0 14.583V4.167c0-1.15.933-2.084 2.083-2.084H3.82V.694C3.82.311 4.13 0 4.514 0c.356 0 .65.268.69.613l.004.081v1.39h5.556V.693c0-.383.31-.694.694-.694zm3.82 6.944H1.388v7.64c0 .355.269.649.614.69l.081.004h12.5c.356 0 .65-.268.69-.614l.005-.08v-7.64zM4.514 11.806c.575 0 1.042.466 1.042 1.041 0 .576-.467 1.042-1.042 1.042s-1.042-.466-1.042-1.042c0-.575.467-1.041 1.042-1.041zm3.82 0c.575 0 1.041.466 1.041 1.041 0 .576-.466 1.042-1.042 1.042-.575 0-1.041-.466-1.041-1.042 0-.575.466-1.041 1.041-1.041zm3.819 0c.575 0 1.041.466 1.041 1.041 0 .576-.466 1.042-1.041 1.042-.576 0-1.042-.466-1.042-1.042 0-.575.466-1.041 1.042-1.041zm-7.64-3.473c.576 0 1.043.467 1.043 1.042s-.467 1.042-1.042 1.042-1.042-.467-1.042-1.042.467-1.042 1.042-1.042zm3.82 0c.576 0 1.042.467 1.042 1.042s-.466 1.042-1.042 1.042c-.575 0-1.041-.467-1.041-1.042s.466-1.042 1.041-1.042zm3.82 0c.575 0 1.041.467 1.041 1.042s-.466 1.042-1.041 1.042c-.576 0-1.042-.467-1.042-1.042s.466-1.042 1.042-1.042zm2.43-4.86h-12.5c-.356 0-.65.267-.69.613l-.004.08v1.39h13.889v-1.39c0-.355-.268-.649-.614-.69l-.08-.004z" transform="translate(-316 -818) translate(24 758) translate(0 24) translate(292.667 36.667)"/>
                    </g>
                </g>
            </g>
        </g>
    </g>
</svg>
