<svg width="24" height="24" viewBox="0 0 24 24" fill="none" xmlns="http://www.w3.org/2000/svg">
    <path fill-rule="evenodd" clip-rule="evenodd"
        d="M23.5605 10.9348C24.1465 11.5208 24.1465 12.4708 23.5605 13.0558C22.9756 13.6418 22.0256 13.6418 21.4396 13.0558L12.0001 3.62094L2.56062 13.0558C1.97465 13.6418 1.0247 13.6418 0.438727 13.0558C-0.146242 12.4708 -0.146242 11.5208 0.438727 10.9348L10.9382 0.439993C11.2312 0.145998 11.6161 0 12.0001 0C12.3841 0 12.7691 0.145998 13.0611 0.439993L23.5605 10.9348ZM15.001 24V19.0001C15.001 17.3431 13.658 16.0001 12.0011 16.0001C10.3442 16.0001 9.00128 17.3431 9.00128 19.0001V24H7.00139C5.34447 24 4.00154 22.657 4.00154 21V14.4472L12.0011 6.44729L20.0007 14.4472V21C20.0007 22.657 18.6578 24 17.0009 24H15.001ZM17.0009 1.55157L20.0007 4.55352V1.55157C20.0007 0.722588 19.3297 0.0515991 18.5008 0.0515991C17.6718 0.0515991 17.0009 0.722588 17.0009 1.55157Z"
        fill="#8DD8CA" />
</svg>
