<svg xmlns="http://www.w3.org/2000/svg" width="24" height="24" viewBox="0 0 24 24">
    <path fill="#06436F" fill-rule="evenodd" d="M8.22 2.187c1.672-2.917 5.888-2.917 7.56 0l7.64 13.315C25.082 18.398 22.983 22 19.64 22H4.361c-3.344 0-5.443-3.602-3.78-6.498zm5.826.994c-.904-1.575-3.188-1.575-4.092 0L2.315 16.499C1.42 18.058 2.551 20 4.361 20H19.64c1.809 0 2.94-1.942 2.046-3.502zM12 16a1 1 0 0 1 .994.883L13 17a1 1 0 1 1-1.993.127L11 17.01c0-.562.448-1.01 1-1.01zm0-10a1 1 0 0 1 .994.883L13 7v6a1 1 0 0 1-1.993.117L11 13V7a1 1 0 0 1 1-1z"/>
</svg>
